<svg width="48" height="48" viewBox="0 0 48 48" fill="none" xmlns="http://www.w3.org/2000/svg">
<rect width="48" height="48" rx="8" fill="url(#paint0_linear_325_1202)"/>
<path d="M34 16.6702V28.7402C34 29.7002 33.22 30.6002 32.26 30.7202L31.93 30.7602C29.75 31.0502 26.39 32.1602 24.47 33.2202C24.21 33.3702 23.78 33.3702 23.51 33.2202L23.47 33.2002C21.55 32.1502 18.2 31.0502 16.03 30.7602L15.74 30.7202C14.78 30.6002 14 29.7002 14 28.7402V16.6602C14 15.4702 14.97 14.5702 16.16 14.6702C18.26 14.8402 21.44 15.9002 23.22 17.0102L23.47 17.1602C23.76 17.3402 24.24 17.3402 24.53 17.1602L24.7 17.0502C25.33 16.6602 26.13 16.2702 27 15.9202V20.0002L29 18.6702L31 20.0002V14.7802C31.27 14.7302 31.53 14.7002 31.77 14.6802H31.83C33.02 14.5802 34 15.4702 34 16.6702Z" stroke="white" stroke-width="1.5" stroke-linecap="round" stroke-linejoin="round"/>
<path d="M24 17.4902V32.4902" stroke="white" stroke-width="1.5" stroke-linecap="round" stroke-linejoin="round"/>
<path d="M31 14.7803V20.0002L29 18.6702L27 20.0002V15.9202C28.31 15.4002 29.77 14.9803 31 14.7803Z" stroke="white" stroke-width="1.5" stroke-linecap="round" stroke-linejoin="round"/>
<defs>
<linearGradient id="paint0_linear_325_1202" x1="0" y1="0" x2="56.8187" y2="32.6565" gradientUnits="userSpaceOnUse">
<stop stop-color="#20D1FD"/>
<stop offset="1" stop-color="#9642FF"/>
</linearGradient>
</defs>
</svg>
