<svg width="48" height="48" viewBox="0 0 48 48" fill="none" xmlns="http://www.w3.org/2000/svg">
<rect width="48" height="48" rx="6" fill="white" fill-opacity="0.04"/>
<path d="M25.7635 31.103L25.7617 31.102C24.6519 30.5529 23.3579 30.5529 22.2482 31.102L22.2463 31.103L18.7669 32.8427C16.2073 34.1182 13.5221 31.3701 14.8515 28.8546C14.8517 28.8544 14.8518 28.8541 14.8519 28.8539L15.6712 27.3152L15.6713 27.3152L15.6728 27.3122C15.7305 27.2021 15.8266 27.1102 15.9462 27.0556C15.9464 27.0555 15.9466 27.0555 15.9468 27.0554L28.5822 21.3574C28.5826 21.3572 28.5831 21.357 28.5836 21.3568C28.8663 21.2326 29.1905 21.3496 29.3263 21.6109L29.3274 21.613L33.1374 28.853L33.1379 28.8539C34.4707 31.3743 31.7882 34.1153 29.2435 32.843L25.7635 31.103Z" fill="white" stroke="white"/>
<path opacity="0.4" d="M27.3961 19.2334L27.3946 19.2341L19.1146 22.9641L19.1142 22.9643C18.6158 23.1894 18.1174 22.6512 18.3711 22.1753L18.3723 22.1731L21.4123 16.4031L21.4124 16.403C22.5148 14.3091 25.5048 14.309 26.6074 16.4027C26.6074 16.4028 26.6075 16.4029 26.6075 16.403L27.6755 18.4392C27.8246 18.7352 27.6926 19.1011 27.3961 19.2334Z" fill="white" stroke="white"/>
</svg>
