<svg width="48" height="48" viewBox="0 0 48 48" fill="none" xmlns="http://www.w3.org/2000/svg">
<rect width="48" height="48" rx="6" fill="white" fill-opacity="0.04"/>
<path d="M33.5 20.4201V18.0001C33.5 17.0399 33.1078 16.1644 32.4752 15.5224C31.8467 14.8945 30.972 14.5089 30.0155 14.5001L33.5 20.4201ZM33.5 20.4201C33.5 21.103 33.286 21.6119 32.9489 21.949M33.5 20.4201L32.9489 21.949M32.9489 21.949C32.6119 22.2861 32.103 22.5001 31.42 22.5001M32.9489 21.949L31.42 22.5001M31.42 22.5001H28.5M31.42 22.5001H28.5M28.5 22.5001V16.0101C28.5 15.1754 29.186 14.4926 30.0154 14.5001L28.5 22.5001Z" fill="white" stroke="white"/>
<path opacity="0.4" d="M15.2981 33.4015L15.3004 33.3997L17.01 32.12L15.2981 33.4015ZM15.2981 33.4015C14.9703 33.6498 14.5 33.4205 14.5 33V19V18C14.5 16.9602 14.7364 16.0967 15.2534 15.498C15.7586 14.9131 16.6024 14.5 18 14.5H19H28.0026M15.2981 33.4015L28.0026 14.5M28.0026 14.5C27.6873 14.9184 27.5 15.4382 27.5 16V33C27.5 33.4052 27.0317 33.6454 26.6988 33.3991C26.6985 33.3989 26.6983 33.3987 26.6981 33.3985L24.992 32.1215C24.3996 31.6681 23.5601 31.7328 23.0364 32.2564L21.3564 33.9364C21.1618 34.1311 20.8386 34.1312 20.6439 33.9368C20.6438 33.9366 20.6437 33.9365 20.6436 33.9364L18.9846 32.2675L18.9836 32.2664C18.4498 31.7327 17.6118 31.6689 17.0104 32.1197L28.0026 14.5Z" fill="white" stroke="white"/>
<path d="M22.9299 25.0801C22.9299 24.8062 23.1561 24.5801 23.4299 24.5801C23.7038 24.5801 23.9299 24.8062 23.9299 25.0801C23.9299 25.3539 23.7038 25.5801 23.4299 25.5801C23.1561 25.5801 22.9299 25.3539 22.9299 25.0801Z" fill="white" stroke="white"/>
<path d="M18.5701 22.03C19.1301 22.03 19.5701 21.58 19.5701 21.03C19.5701 20.48 19.1201 20.03 18.5701 20.03C18.0201 20.03 17.5701 20.48 17.5701 21.03C17.5701 21.58 18.0201 22.03 18.5701 22.03Z" fill="white"/>
<path d="M24.26 19.74C23.97 19.45 23.49 19.45 23.2 19.74L17.74 25.2C17.45 25.49 17.45 25.97 17.74 26.26C17.89 26.41 18.08 26.48 18.27 26.48C18.46 26.48 18.65 26.41 18.8 26.26L24.26 20.8C24.55 20.51 24.55 20.03 24.26 19.74Z" fill="white"/>
</svg>
