<svg width="48" height="48" viewBox="0 0 48 48" fill="none" xmlns="http://www.w3.org/2000/svg">
<rect width="48" height="48" rx="6" fill="white" fill-opacity="0.04"/>
<path opacity="0.4" d="M33.47 24C33.47 29.2467 29.2167 33.5 23.97 33.5C18.7233 33.5 14.47 29.2467 14.47 24C14.47 18.7533 18.7233 14.5 23.97 14.5C29.2167 14.5 33.47 18.7533 33.47 24Z" fill="white" stroke="white"/>
<path d="M19.0105 28.1446L19.0105 28.1446L19.0084 28.1416C18.9313 28.0324 18.9599 27.8786 19.07 27.8041L19.0701 27.8041L19.0782 27.7984C19.1874 27.7214 19.3412 27.7499 19.4157 27.8601L19.4157 27.8601L19.42 27.8662C20.4627 29.359 22.1752 30.2599 23.9999 30.2599C25.822 30.2599 27.5351 29.3712 28.5793 27.867C28.6601 27.7538 28.81 27.7262 28.9256 27.8013C29.0371 27.8831 29.0633 28.0329 28.9871 28.1478C27.8507 29.7808 25.9856 30.7499 23.9999 30.7499C22.0129 30.7499 20.1466 29.7795 19.0105 28.1446Z" fill="white" stroke="white"/>
</svg>
