<svg width="48" height="48" viewBox="0 0 48 48" fill="none" xmlns="http://www.w3.org/2000/svg">
<rect width="48" height="48" rx="6" fill="url(#paint0_linear_18_2435)"/>
<path d="M32 25V18C32 16.8954 31.1046 16 30 16H18C16.8954 16 16 16.8954 16 18V25M32 25V30C32 31.1046 31.1046 32 30 32H18C16.8954 32 16 31.1046 16 30V25M32 25H29.4142C29.149 25 28.8946 25.1054 28.7071 25.2929L26.2929 27.7071C26.1054 27.8946 25.851 28 25.5858 28H22.4142C22.149 28 21.8946 27.8946 21.7071 27.7071L19.2929 25.2929C19.1054 25.1054 18.851 25 18.5858 25H16" stroke="white" stroke-width="2" stroke-linecap="round" stroke-linejoin="round"/>
<defs>
<linearGradient id="paint0_linear_18_2435" x1="0" y1="0" x2="56.8187" y2="32.6565" gradientUnits="userSpaceOnUse">
<stop stop-color="#20D1FD"/>
<stop offset="1" stop-color="#9642FF"/>
</linearGradient>
</defs>
</svg>
