<svg width="48" height="48" viewBox="0 0 48 48" fill="none" xmlns="http://www.w3.org/2000/svg">
<rect width="48" height="48" rx="6" fill="white" fill-opacity="0.04"/>
<path opacity="0.4" d="M19.3361 20.6019L19.337 20.6006L23.507 14.7606L23.507 14.7606L23.5097 14.7568C23.6782 14.5161 23.8634 14.4451 24.0001 14.4451C24.1367 14.4451 24.3219 14.5161 24.4905 14.7568L24.4904 14.7568L24.4932 14.7606L28.6632 20.6006L28.6641 20.6019C28.9573 21.0099 28.9169 21.2384 28.877 21.3159C28.8365 21.3943 28.6721 21.5601 28.1701 21.5601H19.8301C19.3281 21.5601 19.1637 21.3943 19.1232 21.3159C19.0832 21.2384 19.0428 21.0099 19.3361 20.6019Z" fill="white" stroke="white"/>
<path d="M17.6246 27.964L17.6246 27.964L17.6275 27.9599L21.468 22.5601H26.5321L30.3726 27.9599L30.3726 27.9599L30.3756 27.964C30.7898 28.534 30.7735 28.9071 30.6812 29.0872C30.5886 29.2682 30.2941 29.5001 29.5901 29.5001H18.4101C17.7061 29.5001 17.4115 29.2682 17.3189 29.0872C17.2267 28.9071 17.2104 28.534 17.6246 27.964Z" fill="white" stroke="white"/>
<path d="M24.25 30.5V34C24.25 34.1339 24.1339 34.25 24 34.25C23.8661 34.25 23.75 34.1339 23.75 34V30.5H24.25Z" fill="white" stroke="white"/>
</svg>
