<svg width="114" height="40" viewBox="0 0 114 40" fill="none" xmlns="http://www.w3.org/2000/svg">
<g clip-path="url(#clip0_8_3917)">
<path d="M6.92496 24.0858L19.2166 10.9058L16.4575 8.33325L4.16663 21.5133L6.92496 24.0858ZM8.99329 32.4999L21.2833 19.3199L18.525 16.7474L6.23496 29.9274L8.99329 32.4999ZM35.0441 17.3199C34.7235 16.919 34.3118 16.6005 33.8433 16.3908C33.3483 16.1608 32.8716 16.0458 32.4116 16.0458C32.175 16.0458 31.935 16.0666 31.6916 16.1083C31.4475 16.1499 31.2283 16.2308 31.0333 16.3491C30.8383 16.4674 30.675 16.6208 30.5416 16.8083C30.41 16.9966 30.3441 17.2366 30.3441 17.5291C30.3441 17.7791 30.3958 17.9891 30.5008 18.1558C30.605 18.3224 30.7583 18.4691 30.96 18.5949C31.1616 18.7199 31.4016 18.8349 31.6808 18.9391C31.9591 19.0441 32.2725 19.1516 32.6208 19.2633C33.1225 19.4299 33.645 19.6149 34.1875 19.8166C34.7181 20.0117 35.2177 20.2825 35.6708 20.6208C36.1166 20.9549 36.4858 21.3699 36.7783 21.8641C37.07 22.3583 37.2166 22.9749 37.2166 23.7133C37.2166 24.5624 37.06 25.2966 36.7466 25.9166C36.4484 26.5183 36.0162 27.0437 35.4833 27.4524C34.9394 27.8636 34.3228 28.1684 33.6658 28.3508C32.9795 28.546 32.2693 28.6442 31.5558 28.6424C30.4975 28.6424 29.4733 28.4591 28.485 28.0899C27.4958 27.7208 26.6741 27.1949 26.0191 26.5124L28.3591 24.1308C28.7216 24.5766 29.1983 24.9491 29.79 25.2483C30.3816 25.5483 30.9708 25.6983 31.5558 25.6983C31.82 25.6983 32.0775 25.6699 32.3283 25.6141C32.5791 25.5583 32.7983 25.4674 32.9866 25.3424C33.1741 25.2174 33.3241 25.0499 33.4358 24.8408C33.5475 24.6324 33.6025 24.3816 33.6025 24.0891C33.6025 23.8108 33.5333 23.5733 33.3941 23.3783C33.2325 23.1632 33.03 22.9823 32.7983 22.8458C32.4951 22.6647 32.1729 22.5177 31.8375 22.4074C31.4541 22.2749 31.0191 22.1324 30.5316 21.9791C30.0581 21.8259 29.5942 21.6444 29.1425 21.4358C28.6989 21.2329 28.29 20.9615 27.9308 20.6316C27.5691 20.2951 27.2778 19.89 27.0741 19.4399C26.8583 18.9741 26.7508 18.4066 26.7508 17.7383C26.7508 16.9166 26.9175 16.2133 27.2516 15.6283C27.5759 15.0543 28.026 14.5614 28.5683 14.1866C29.1267 13.8037 29.7494 13.5243 30.4066 13.3616C31.0824 13.1882 31.7773 13.1002 32.475 13.0999C33.31 13.0999 34.1633 13.2533 35.0333 13.5599C35.9041 13.8666 36.6666 14.3183 37.3216 14.9183L35.0441 17.3199ZM43.1083 20.4333V24.4024C43.1083 24.8899 43.2025 25.2549 43.39 25.4991C43.5783 25.7424 43.9158 25.8649 44.4033 25.8649C44.57 25.8649 44.7483 25.8508 44.9366 25.8233C45.0979 25.8027 45.2557 25.7606 45.4058 25.6983L45.4475 28.2041C45.2116 28.2874 44.9116 28.3608 44.55 28.4241C44.1911 28.4863 43.8275 28.5175 43.4633 28.5174C42.7666 28.5174 42.1816 28.4308 41.7083 28.2566C41.235 28.0824 40.8558 27.8316 40.57 27.5049C40.2785 27.1666 40.0676 26.7666 39.9533 26.3349C39.8228 25.8407 39.7597 25.3311 39.7658 24.8199V20.4333H38.0941V17.8633H39.7441V15.1266H43.1083V17.8633H45.5525V20.4333H43.1083ZM53.3033 23.7333H52.8641C52.4883 23.7333 52.1091 23.7508 51.7258 23.7858C51.3425 23.8208 51.0008 23.8874 50.7025 23.9841C50.4257 24.0683 50.172 24.2148 49.9608 24.4124C49.7658 24.6008 49.6683 24.8483 49.6683 25.1541C49.6683 25.3491 49.7133 25.5166 49.8041 25.6558C49.8941 25.7949 50.0091 25.9058 50.1483 25.9899C50.2875 26.0733 50.4483 26.1324 50.6291 26.1674C50.81 26.2024 50.9841 26.2199 51.1516 26.2199C51.8475 26.2199 52.38 26.0283 52.7491 25.6449C53.1183 25.2616 53.3033 24.7433 53.3033 24.0891V23.7341V23.7333ZM47.015 19.2833C47.6279 18.6984 48.3578 18.2499 49.1566 17.9674C49.9569 17.6777 50.8014 17.5294 51.6525 17.5291C52.53 17.5291 53.2716 17.6374 53.8775 17.8533C54.4833 18.0691 54.9741 18.4033 55.35 18.8558C55.7266 19.3083 56.0016 19.8791 56.175 20.5691C56.35 21.2583 56.4366 22.0766 56.4366 23.0233V28.2674H53.3033V27.1599H53.24C52.9758 27.5916 52.575 27.9266 52.0391 28.1624C51.4891 28.402 50.8948 28.5229 50.295 28.5174C49.8578 28.5152 49.4226 28.4592 48.9991 28.3508C48.563 28.2434 48.1493 28.0594 47.7775 27.8074C47.4009 27.5484 47.0899 27.2051 46.8691 26.8049C46.6316 26.3866 46.5133 25.8716 46.5133 25.2591C46.5133 24.5066 46.7191 23.9008 47.13 23.4416C47.5408 22.9816 48.07 22.6266 48.7175 22.3758C49.365 22.1258 50.0858 21.9583 50.88 21.8749C51.6733 21.7916 52.4466 21.7491 53.1983 21.7491V21.5824C53.1983 21.0666 53.0175 20.6874 52.6558 20.4433C52.2933 20.1999 51.8475 20.0774 51.3183 20.0774C50.8308 20.0774 50.3608 20.1824 49.9083 20.3916C49.4852 20.5809 49.0939 20.8345 48.7483 21.1433L47.015 19.2841V19.2833ZM62.5883 20.4333V24.4024C62.5883 24.8899 62.6816 25.2549 62.87 25.4991C63.0575 25.7424 63.395 25.8649 63.8833 25.8649C64.05 25.8649 64.2275 25.8508 64.4158 25.8233C64.6041 25.7949 64.7608 25.7533 64.8858 25.6983L64.9275 28.2041C64.6908 28.2874 64.3916 28.3608 64.0291 28.4241C63.6705 28.4862 63.3072 28.5174 62.9433 28.5174C62.2466 28.5174 61.6616 28.4308 61.1883 28.2566C60.715 28.0824 60.335 27.8316 60.05 27.5049C59.7584 27.1667 59.5476 26.7666 59.4333 26.3349C59.3025 25.8407 59.2392 25.3311 59.245 24.8199V20.4333H57.575V17.8633H59.225V15.1266H62.5891V17.8633H65.0333V20.4333H62.5891H62.5883ZM70.3591 14.5416C70.3591 14.8066 70.3066 15.0533 70.2025 15.2833C70.1027 15.5067 69.961 15.709 69.785 15.8791C69.4074 16.2296 68.9109 16.4237 68.3958 16.4224C67.8383 16.4224 67.3716 16.2374 66.9958 15.8683C66.8151 15.6982 66.6716 15.4925 66.5745 15.2641C66.4774 15.0357 66.4288 14.7897 66.4316 14.5416C66.4316 14.2916 66.4808 14.0508 66.5783 13.8208C66.6758 13.5916 66.815 13.3924 66.9958 13.2258C67.1766 13.0591 67.3858 12.9224 67.6225 12.8183C67.8591 12.7141 68.1166 12.6616 68.3958 12.6616C68.66 12.6616 68.9141 12.7099 69.1583 12.8074C69.4016 12.9049 69.6108 13.0374 69.785 13.2049C69.9591 13.3716 70.0983 13.5708 70.2025 13.7999C70.3075 14.0299 70.3591 14.2774 70.3591 14.5416ZM66.6833 28.2666V17.8641H70.1091V28.2683H66.6833V28.2666ZM79.4108 21.2266C79.1992 20.9631 78.9266 20.7552 78.6166 20.6208C78.2962 20.4709 77.947 20.3927 77.5933 20.3916C77.2308 20.3916 76.9033 20.4641 76.6108 20.6108C76.3234 20.7532 76.0678 20.9522 75.8591 21.1958C75.6508 21.4391 75.4866 21.7208 75.3675 22.0416C75.2481 22.3694 75.1882 22.716 75.1908 23.0649C75.1908 23.4274 75.2466 23.7683 75.3575 24.0891C75.464 24.4007 75.6311 24.6881 75.8491 24.9349C76.0641 25.1791 76.3225 25.3699 76.6216 25.5099C76.9216 25.6491 77.2591 25.7183 77.635 25.7183C77.9833 25.7183 78.3275 25.6516 78.6683 25.5199C79.01 25.3874 79.285 25.1958 79.4933 24.9449L81.395 27.2641C80.9633 27.6824 80.4066 28.0091 79.7241 28.2458C79.0248 28.4856 78.2901 28.6059 77.5508 28.6016C76.7691 28.6079 75.9921 28.4805 75.2533 28.2249C74.5685 27.9895 73.9391 27.6163 73.4041 27.1283C72.8759 26.6394 72.4561 26.0452 72.1716 25.3841C71.8716 24.7016 71.7225 23.9291 71.7225 23.0649C71.7225 22.2149 71.8725 21.4499 72.1725 20.7674C72.4567 20.1064 72.8763 19.5122 73.4041 19.0233C73.9403 18.534 74.569 18.1571 75.2533 17.9149C76.3411 17.5268 77.5114 17.4297 78.6483 17.6333C79.0175 17.7033 79.3725 17.7974 79.7133 17.9158C80.055 18.0341 80.3683 18.1799 80.6533 18.3541C80.9391 18.5291 81.1866 18.7199 81.395 18.9291L79.4108 21.2266ZM91.9866 28.2674L86.4925 21.4566H86.4508V28.2674H82.9408V13.4749H86.4508V19.4916H86.5133L91.7991 13.4749H96.2691L89.8975 20.2858L96.6458 28.2666H91.9866V28.2674ZM101.325 14.5424C101.325 14.8066 101.273 15.0533 101.168 15.2841C101.069 15.5074 100.927 15.7094 100.751 15.8791C100.373 16.2293 99.8767 16.4234 99.3616 16.4224C98.8041 16.4224 98.3375 16.2374 97.9616 15.8683C97.781 15.6982 97.6375 15.4924 97.5404 15.2641C97.4433 15.0357 97.3946 14.7897 97.3975 14.5416C97.3975 14.2916 97.4466 14.0508 97.5441 13.8208C97.6416 13.5916 97.7808 13.3924 97.9616 13.2258C98.1425 13.0591 98.3516 12.9224 98.5883 12.8183C98.825 12.7141 99.0825 12.6616 99.3616 12.6616C99.8767 12.6606 100.373 12.8547 100.751 13.2049C100.925 13.3716 101.064 13.5708 101.168 13.7999C101.273 14.0299 101.325 14.2774 101.325 14.5416V14.5424ZM97.6483 28.2674V17.8633H101.074V28.2674H97.6483ZM107.509 20.4333V24.4024C107.509 24.8899 107.602 25.2549 107.791 25.4991C107.979 25.7424 108.317 25.8649 108.804 25.8649C108.971 25.8649 109.149 25.8508 109.337 25.8233C109.498 25.8028 109.656 25.7608 109.807 25.6983L109.848 28.2041C109.612 28.2874 109.312 28.3608 108.95 28.4241C108.591 28.4862 108.228 28.5175 107.864 28.5174C107.167 28.5174 106.582 28.4308 106.109 28.2566C105.636 28.0824 105.256 27.8316 104.971 27.5049C104.679 27.1666 104.469 26.7665 104.354 26.3349C104.224 25.8406 104.161 25.3311 104.167 24.8199V20.4333H102.495V17.8633H104.146V15.1266H107.509V17.8633H109.953V20.4333H107.509Z" fill="#9CA3AF"/>
</g>
<defs>
<clipPath id="clip0_8_3917">
<rect width="105.833" height="40" fill="white" transform="translate(4.16663)"/>
</clipPath>
</defs>
</svg>
