<svg width="88" height="33" viewBox="0 0 88 33" fill="none" xmlns="http://www.w3.org/2000/svg">
<path fill-rule="evenodd" clip-rule="evenodd" d="M0 5.33325L15 0.333252V8.24992L20 6.58325V32.8333L5 27.8333V23.2499L0 21.5833V5.33325ZM15 26.5833L6.66667 23.8058V26.6333L18.3333 30.5207V8.89575L15 10.0066V26.5833Z" fill="#9CA3AF"/>
<path d="M35.75 22.8332V14.0424H32.825V11.2149H42.3967V14.0416H39.455V22.8332H35.75Z" fill="#9CA3AF"/>
<path d="M49.5675 23.0449C46.1708 23.0449 44.2542 21.3549 44.2542 18.0399V11.2149H47.9258V17.8941C47.9258 19.4049 48.2508 20.1524 49.5675 20.1524C50.8675 20.1524 51.1925 19.4049 51.1925 17.8774V11.2149H54.8975V18.0074C54.8975 21.5007 52.8175 23.0449 49.5675 23.0449Z" fill="#9CA3AF"/>
<path fill-rule="evenodd" clip-rule="evenodd" d="M57.4708 22.8332V11.2149H62.1025C65.45 11.2149 66.88 12.7099 66.88 15.1957V15.2607C66.88 17.6824 65.2717 19.0474 62.265 19.0474H61.1433V22.8332H57.4708ZM61.9067 16.5774H61.1433V13.9607H61.9233C62.8817 13.9607 63.3858 14.3191 63.3858 15.2124V15.2774C63.3858 16.1382 62.8817 16.5774 61.9067 16.5774Z" fill="#9CA3AF"/>
<path d="M68.8025 11.2149V22.8332H76.7167V19.9899H72.4917V11.2149H68.8025Z" fill="#9CA3AF"/>
<path d="M78.8016 22.8332V11.2149H87.0567V14.0424H82.4742V15.6841H86.1142V18.2674H82.4742V20.0057H87.3167V22.8332H78.8016Z" fill="#9CA3AF"/>
</svg>
