<svg width="166" height="40" viewBox="0 0 166 40" fill="none" xmlns="http://www.w3.org/2000/svg">
<path fill-rule="evenodd" clip-rule="evenodd" d="M36.3714 13.3872L42.7014 17.0419C42.5191 15.5392 41.7876 14.1181 40.5911 13.0956H43.979C42.854 11.5977 41.0625 10.6287 39.0454 10.6287C38.8663 10.6287 38.6888 10.6364 38.5137 10.6513L43.1125 7.99654C41.3893 7.2619 39.3529 7.31841 37.6055 8.32727C36.7511 8.82042 36.0598 9.48725 35.5499 10.2572C35.04 9.48725 34.3478 8.82042 33.4934 8.32727C31.746 7.31841 29.7105 7.2619 27.9872 7.99654L32.5852 10.6513C32.411 10.6364 32.2335 10.6287 32.0552 10.6287C30.0373 10.6287 28.2458 11.5977 27.1208 13.0956H30.5078C29.3121 14.1181 28.5806 15.5392 28.3984 17.0421L34.7268 13.3882V30.3633H30.6154V17.6612L26.3694 20.1127L26.7659 16.8442C26.8535 16.1212 27.0419 15.4124 27.3253 14.7402H24.7575L7.41663 19.0755L7.81548 20.6709L10.8808 19.9046V30.3633H7.59168V32.0079H43.7717V30.3633H36.3714V13.3872ZM27.3263 22.1407V30.3633H22.3926V22.1407H27.3263ZM16.6367 25.4297C17.545 25.4297 18.2813 24.6935 18.2813 23.7852C18.2813 22.877 17.545 22.1407 16.6367 22.1407C15.7285 22.1407 14.9922 22.877 14.9922 23.7852C14.9922 24.6935 15.7285 25.4297 16.6367 25.4297Z" fill="#9CA3AF"/>
<path d="M56.8055 29.7012H59.9038L62.489 20.5838L65.094 29.7012H68.1923L72.0602 15.887H69.1987L66.5543 26.1292L63.6533 15.887H61.3246L58.4434 26.1292L55.799 15.887H52.9375L56.8055 29.7012Z" fill="#9CA3AF"/>
<path fill-rule="evenodd" clip-rule="evenodd" d="M77.0423 29.9775C79.9433 29.9775 82.272 27.7081 82.272 24.7676C82.272 21.8272 79.9433 19.5577 77.0423 19.5577C74.1413 19.5577 71.8324 21.8272 71.8324 24.7676C71.8324 27.7081 74.1413 29.9775 77.0423 29.9775ZM77.0423 27.491C75.5425 27.491 74.3781 26.3661 74.3781 24.7676C74.3781 23.1691 75.5425 22.0443 77.0423 22.0443C78.5619 22.0443 79.7262 23.1691 79.7262 24.7676C79.7262 26.3661 78.5619 27.491 77.0423 27.491Z" fill="#9CA3AF"/>
<path d="M86.6087 19.8339V21.5311C87.1217 20.1891 88.365 19.6365 89.6083 19.6365V22.4784C88.2858 22.3205 86.6087 22.9125 86.6087 24.9846V29.7012H84.0629V19.8339H86.6087Z" fill="#9CA3AF"/>
<path d="M100.195 29.7012L96.11 24.7084L100.077 19.8339H97.0375L93.6433 24.1755V15.887H91.0975V29.7012H93.6433V25.2215L97.235 29.7012H100.195Z" fill="#9CA3AF"/>
<path d="M106.163 29.9777C108.097 29.9777 109.775 28.9515 110.623 27.4122L108.413 26.1492C108.018 26.9583 107.17 27.4516 106.143 27.4516C104.624 27.4516 103.499 26.3268 103.499 24.7678C103.499 23.189 104.624 22.0641 106.143 22.0641C107.15 22.0641 107.998 22.5772 108.393 23.3864L110.584 22.1036C109.775 20.5841 108.097 19.5578 106.163 19.5578C103.163 19.5578 100.953 21.8273 100.953 24.7678C100.953 27.7082 103.163 29.9777 106.163 29.9777Z" fill="#9CA3AF"/>
<path fill-rule="evenodd" clip-rule="evenodd" d="M119.315 20.9985V19.8341H121.861V29.7014H119.315V28.5371C118.604 29.4251 117.538 29.9777 116.098 29.9777C113.473 29.9777 111.302 27.7082 111.302 24.7678C111.302 21.8273 113.473 19.5578 116.098 19.5578C117.538 19.5578 118.604 20.1104 119.315 20.9985ZM113.848 24.7678C113.848 26.4255 115.012 27.5503 116.572 27.5503C118.151 27.5503 119.315 26.4255 119.315 24.7678C119.315 23.1101 118.151 21.9852 116.572 21.9852C115.012 21.9852 113.848 23.1101 113.848 24.7678Z" fill="#9CA3AF"/>
<path d="M129.813 22.2812V19.8342H127.583V17.0713L125.037 17.841V19.8342H123.321V22.2812H125.037V26.386C125.037 29.0502 126.241 30.0962 129.813 29.7014V27.3925C128.352 27.4714 127.583 27.4517 127.583 26.386V22.2812H129.813Z" fill="#9CA3AF"/>
<path d="M134.45 17.0911C134.45 17.9397 133.739 18.6501 132.871 18.6501C132.022 18.6501 131.312 17.9397 131.312 17.0911C131.312 16.2425 132.022 15.5123 132.871 15.5123C133.739 15.5123 134.45 16.2425 134.45 17.0911Z" fill="#9CA3AF"/>
<path d="M134.154 29.7015H131.608V19.8342H134.154V29.7015Z" fill="#9CA3AF"/>
<path fill-rule="evenodd" clip-rule="evenodd" d="M141.181 29.9777C144.082 29.9777 146.41 27.7082 146.41 24.7678C146.41 21.8273 144.082 19.5578 141.181 19.5578C138.28 19.5578 135.971 21.8273 135.971 24.7678C135.971 27.7082 138.28 29.9777 141.181 29.9777ZM141.181 27.4911C139.681 27.4911 138.517 26.3663 138.517 24.7678C138.517 23.1693 139.681 22.0444 141.181 22.0444C142.7 22.0444 143.864 23.1693 143.864 24.7678C143.864 26.3663 142.7 27.4911 141.181 27.4911Z" fill="#9CA3AF"/>
<path d="M150.747 20.9393C151.339 20.0512 152.365 19.5578 153.687 19.5578C155.779 19.5578 157.417 21.0182 157.417 23.6429V29.7014H154.872V23.9586C154.872 22.6167 154.062 21.926 152.917 21.926C151.674 21.926 150.747 22.6561 150.747 24.3731V29.7014H148.201V19.8341H150.747V20.9393Z" fill="#9CA3AF"/>
</svg>
